<?xml version="1.0" encoding="UTF-8"?> <svg xmlns="http://www.w3.org/2000/svg" width="471" height="86" viewBox="0 0 471 86" fill="none"><path fill-rule="evenodd" clip-rule="evenodd" d="M39.0784 9.33715C35.1102 14.2901 32.7332 20.7147 32.7332 28.1589C32.7332 34.6252 35.814 40.8539 40.4901 47.033C44.9677 52.9499 51.2753 59.2927 58.8783 66.3006L43.1624 82C29.5821 70.8072 17.0064 58.7757 6.59989 45.2735C-1.75722 34.4305 -2.64244 21.3264 6.63016 12.0122L7.17076 11.4692C14.6862 3.92004 28.1082 0.296178 39.0784 9.33715Z" fill="#0E1C4E"></path><path fill-rule="evenodd" clip-rule="evenodd" d="M38.8014 28.2632C38.8014 13.698 49.6031 4 62.9276 4C76.2522 4 87.0539 13.698 87.0539 28.2632C87.0539 37.9734 78.2807 48.2637 63.2644 62.7105C47.9672 48.5331 38.8014 37.9734 38.8014 28.2632ZM63.0265 33.3812C67.0651 33.3812 70.339 30.0926 70.339 26.0359C70.339 21.9792 67.0651 18.6906 63.0265 18.6906C58.9879 18.6906 55.714 21.9792 55.714 26.0359C55.714 30.0926 58.9879 33.3812 63.0265 33.3812Z" fill="#469CFF"></path><path d="M128.673 21.6048C130.178 22.0416 131.342 22.806 132.167 23.898C132.993 24.99 133.405 26.3247 133.405 27.902C133.405 30.086 132.592 31.8211 130.966 33.1072C129.34 34.3691 127.132 35 124.341 35H112.038V9.0832H123.977C126.671 9.0832 128.794 9.68986 130.347 10.9032C131.925 12.0923 132.713 13.7303 132.713 15.8172C132.713 17.1761 132.349 18.3652 131.621 19.3844C130.918 20.4036 129.935 21.1437 128.673 21.6048ZM117.571 19.6392H123.031C124.487 19.6392 125.567 19.3965 126.271 18.9112C126.999 18.4016 127.363 17.6251 127.363 16.5816C127.363 15.5139 126.999 14.7252 126.271 14.2156C125.567 13.706 124.487 13.4512 123.031 13.4512H117.571V19.6392ZM123.686 30.632C125.215 30.632 126.319 30.3772 126.999 29.8676C127.702 29.3337 128.054 28.4965 128.054 27.356C128.054 26.1912 127.702 25.3419 126.999 24.808C126.319 24.2741 125.215 24.0072 123.686 24.0072H117.571V30.632H123.686ZM153.581 26.2276H141.424C141.521 27.9505 141.97 29.2124 142.77 30.0132C143.571 30.7897 144.76 31.178 146.338 31.178C147.284 31.178 148.23 31.0203 149.177 30.7048C150.123 30.3893 150.997 29.9283 151.798 29.3216L153.254 33.0344C152.38 33.7381 151.288 34.2963 149.978 34.7088C148.691 35.0971 147.393 35.2912 146.083 35.2912C142.977 35.2912 140.538 34.4419 138.766 32.7432C136.995 31.0203 136.109 28.6785 136.109 25.718C136.109 23.8495 136.485 22.1872 137.238 20.7312C138.014 19.2509 139.094 18.1104 140.477 17.3096C141.86 16.4845 143.426 16.072 145.173 16.072C147.769 16.072 149.82 16.9213 151.324 18.62C152.829 20.2944 153.581 22.5633 153.581 25.4268V26.2276ZM145.318 19.9304C144.275 19.9304 143.426 20.2337 142.77 20.8404C142.139 21.4471 141.727 22.3328 141.533 23.4976H148.849C148.558 21.1195 147.381 19.9304 145.318 19.9304ZM162.504 30.8868H172.332V35H156.061V31.1416L165.38 20.6584H156.207V16.5452H171.968V20.258L162.504 30.8868ZM187.12 16.072C188.698 16.072 190.105 16.4845 191.343 17.3096C192.58 18.1104 193.539 19.2509 194.218 20.7312C194.922 22.2115 195.274 23.898 195.274 25.7908C195.274 27.6836 194.934 29.358 194.255 30.814C193.575 32.2457 192.617 33.3499 191.379 34.1264C190.142 34.9029 188.722 35.2912 187.12 35.2912C185.834 35.2912 184.682 35.0243 183.662 34.4904C182.643 33.9565 181.867 33.2164 181.333 32.27V42.8624H175.836V21.8232C175.836 19.8576 175.739 18.0983 175.545 16.5452H180.714L181.078 19.6028C181.563 18.5108 182.34 17.6493 183.408 17.0184C184.5 16.3875 185.737 16.072 187.12 16.072ZM185.555 31.1052C186.914 31.1052 187.958 30.6563 188.686 29.7584C189.414 28.8363 189.778 27.5137 189.778 25.7908C189.778 24.0679 189.401 22.7211 188.649 21.7504C187.921 20.7797 186.89 20.2944 185.555 20.2944C184.196 20.2944 183.141 20.7676 182.388 21.714C181.66 22.6361 181.296 23.9708 181.296 25.718C181.296 27.4652 181.66 28.7999 182.388 29.722C183.141 30.6441 184.196 31.1052 185.555 31.1052ZM198.8 35V16.5452H204.296V35H198.8ZM198.618 7.88199H204.478V13.0508H198.618V7.88199ZM225.35 26.2276H213.193C213.29 27.9505 213.739 29.2124 214.54 30.0132C215.34 30.7897 216.529 31.178 218.107 31.178C219.053 31.178 220 31.0203 220.946 30.7048C221.892 30.3893 222.766 29.9283 223.567 29.3216L225.023 33.0344C224.149 33.7381 223.057 34.2963 221.747 34.7088C220.461 35.0971 219.162 35.2912 217.852 35.2912C214.746 35.2912 212.307 34.4419 210.536 32.7432C208.764 31.0203 207.878 28.6785 207.878 25.718C207.878 23.8495 208.254 22.1872 209.007 20.7312C209.783 19.2509 210.863 18.1104 212.246 17.3096C213.63 16.4845 215.195 16.072 216.942 16.072C219.538 16.072 221.589 16.9213 223.094 18.62C224.598 20.2944 225.35 22.5633 225.35 25.4268V26.2276ZM217.088 19.9304C216.044 19.9304 215.195 20.2337 214.54 20.8404C213.909 21.4471 213.496 22.3328 213.302 23.4976H220.618C220.327 21.1195 219.15 19.9304 217.088 19.9304ZM237.537 35.2912C234.528 35.2912 232.162 34.4419 230.439 32.7432C228.741 31.0445 227.891 28.7271 227.891 25.7908C227.891 23.8737 228.304 22.1872 229.129 20.7312C229.954 19.2509 231.107 18.1104 232.587 17.3096C234.091 16.4845 235.826 16.072 237.792 16.072C239.127 16.072 240.425 16.2783 241.687 16.6908C242.949 17.1033 243.956 17.6615 244.708 18.3652L243.252 22.1872C242.524 21.6048 241.723 21.1559 240.85 20.8404C239.976 20.5007 239.127 20.3308 238.302 20.3308C236.797 20.3308 235.62 20.7919 234.771 21.714C233.946 22.6119 233.533 23.9344 233.533 25.6816C233.533 27.4531 233.946 28.7999 234.771 29.722C235.596 30.6199 236.773 31.0688 238.302 31.0688C239.127 31.0688 239.976 30.9111 240.85 30.5956C241.723 30.2559 242.524 29.7948 243.252 29.2124L244.708 33.0344C243.907 33.7381 242.864 34.2963 241.578 34.7088C240.291 35.0971 238.945 35.2912 237.537 35.2912ZM253.291 30.8868H263.119V35H246.848V31.1416L256.166 20.6584H246.994V16.5452H262.755V20.258L253.291 30.8868ZM278.016 16.072C282.384 16.072 284.568 18.6564 284.568 23.8252V35H279.072V24.08C279.072 22.7939 278.829 21.8596 278.344 21.2772C277.883 20.6705 277.143 20.3672 276.124 20.3672C274.91 20.3672 273.94 20.7555 273.212 21.532C272.484 22.3085 272.12 23.352 272.12 24.6624V35H266.623V21.8232C266.623 19.8576 266.526 18.0983 266.332 16.5452H271.501L271.865 19.4572C272.52 18.3652 273.369 17.528 274.413 16.9456C275.48 16.3632 276.682 16.072 278.016 16.072ZM307.438 16.5452V35H302.014V32.27C301.456 33.2164 300.667 33.9565 299.648 34.4904C298.629 35.0243 297.476 35.2912 296.19 35.2912C294.589 35.2912 293.169 34.9029 291.931 34.1264C290.718 33.3499 289.759 32.2457 289.056 30.814C288.376 29.358 288.037 27.6836 288.037 25.7908C288.037 23.898 288.376 22.2115 289.056 20.7312C289.759 19.2509 290.73 18.1104 291.968 17.3096C293.205 16.4845 294.613 16.072 296.19 16.072C297.476 16.072 298.629 16.3511 299.648 16.9092C300.667 17.4673 301.456 18.2196 302.014 19.166V16.5452H307.438ZM297.792 31.1052C299.151 31.1052 300.194 30.6441 300.922 29.722C301.65 28.7999 302.014 27.4652 302.014 25.718C302.014 23.9708 301.65 22.6361 300.922 21.714C300.194 20.7676 299.151 20.2944 297.792 20.2944C296.433 20.2944 295.377 20.7797 294.625 21.7504C293.873 22.7211 293.497 24.0679 293.497 25.7908C293.497 27.5137 293.861 28.8363 294.589 29.7584C295.341 30.6563 296.409 31.1052 297.792 31.1052ZM344.352 35H338.346L335.034 26.3732C334.767 25.6937 334.354 25.2205 333.796 24.9536C333.262 24.6867 332.583 24.5532 331.758 24.5532H328.081V35H322.476V9.0832H334.015C337.024 9.0832 339.305 9.7384 340.858 11.0488C342.411 12.3592 343.187 14.2399 343.187 16.6908C343.187 18.4137 342.726 19.894 341.804 21.1316C340.906 22.3692 339.608 23.2549 337.909 23.7888C339.438 24.1043 340.542 25.1599 341.222 26.9556L344.352 35ZM333.177 20.2216C334.803 20.2216 335.992 19.9547 336.745 19.4208C337.497 18.8627 337.873 18.0012 337.873 16.8364C337.873 15.6716 337.497 14.8223 336.745 14.2884C335.992 13.7303 334.803 13.4512 333.177 13.4512H328.009V20.2216H333.177ZM356.692 35.2912C354.726 35.2912 353.004 34.9029 351.523 34.1264C350.067 33.3499 348.939 32.2336 348.138 30.7776C347.362 29.3216 346.973 27.6229 346.973 25.6816C346.973 23.7403 347.362 22.0416 348.138 20.5856C348.939 19.1296 350.067 18.0133 351.523 17.2368C353.004 16.4603 354.726 16.072 356.692 16.072C358.633 16.072 360.332 16.4603 361.788 17.2368C363.244 18.0133 364.36 19.1296 365.137 20.5856C365.938 22.0416 366.338 23.7403 366.338 25.6816C366.338 27.6229 365.938 29.3216 365.137 30.7776C364.36 32.2336 363.244 33.3499 361.788 34.1264C360.332 34.9029 358.633 35.2912 356.692 35.2912ZM356.692 31.1052C358.051 31.1052 359.082 30.6563 359.786 29.7584C360.514 28.8605 360.878 27.5016 360.878 25.6816C360.878 23.8859 360.514 22.5391 359.786 21.6412C359.082 20.7191 358.051 20.258 356.692 20.258C355.309 20.258 354.253 20.7191 353.525 21.6412C352.797 22.5391 352.433 23.8859 352.433 25.6816C352.433 29.2973 353.853 31.1052 356.692 31.1052ZM388.342 8.20959V35H382.919V32.27C382.361 33.2164 381.572 33.9565 380.553 34.4904C379.534 35.0243 378.381 35.2912 377.095 35.2912C375.518 35.2912 374.11 34.8908 372.872 34.09C371.635 33.2649 370.664 32.1244 369.96 30.6684C369.281 29.1881 368.941 27.5016 368.941 25.6088C368.941 23.716 369.281 22.0537 369.96 20.622C370.664 19.166 371.623 18.0497 372.836 17.2732C374.074 16.4724 375.493 16.072 377.095 16.072C378.332 16.072 379.461 16.3389 380.48 16.8728C381.499 17.3824 382.288 18.0983 382.846 19.0204V8.20959H388.342ZM378.696 31.1052C380.055 31.1052 381.099 30.6441 381.827 29.722C382.555 28.7756 382.919 27.4288 382.919 25.6816C382.919 23.9587 382.543 22.6361 381.79 21.714C381.062 20.7676 380.031 20.2944 378.696 20.2944C377.338 20.2944 376.282 20.7555 375.53 21.6776C374.777 22.5997 374.401 23.9101 374.401 25.6088C374.401 27.356 374.777 28.7149 375.53 29.6856C376.282 30.632 377.338 31.1052 378.696 31.1052ZM398.749 30.8868H408.577V35H392.306V31.1416L401.624 20.6584H392.451V16.5452H408.213V20.258L398.749 30.8868ZM412.081 35V16.5452H417.577V35H412.081ZM411.899 7.88199H417.759V13.0508H411.899V7.88199ZM433.463 16.072C437.831 16.072 440.015 18.6564 440.015 23.8252V35H434.518V24.08C434.518 22.7939 434.276 21.8596 433.79 21.2772C433.329 20.6705 432.589 20.3672 431.57 20.3672C430.357 20.3672 429.386 20.7555 428.658 21.532C427.93 22.3085 427.566 23.352 427.566 24.6624V35H422.07V21.8232C422.07 19.8576 421.973 18.0983 421.778 16.5452H426.947L427.311 19.4572C427.966 18.3652 428.816 17.528 429.859 16.9456C430.927 16.3632 432.128 16.072 433.463 16.072ZM462.884 16.5452V35H457.461V32.27C456.903 33.2164 456.114 33.9565 455.095 34.4904C454.075 35.0243 452.923 35.2912 451.637 35.2912C450.035 35.2912 448.615 34.9029 447.378 34.1264C446.165 33.3499 445.206 32.2457 444.502 30.814C443.823 29.358 443.483 27.6836 443.483 25.7908C443.483 23.898 443.823 22.2115 444.502 20.7312C445.206 19.2509 446.177 18.1104 447.414 17.3096C448.652 16.4845 450.059 16.072 451.637 16.072C452.923 16.072 454.075 16.3511 455.095 16.9092C456.114 17.4673 456.903 18.2196 457.461 19.166V16.5452H462.884ZM453.238 31.1052C454.597 31.1052 455.641 30.6441 456.369 29.722C457.097 28.7999 457.461 27.4652 457.461 25.718C457.461 23.9708 457.097 22.6361 456.369 21.714C455.641 20.7676 454.597 20.2944 453.238 20.2944C451.879 20.2944 450.824 20.7797 450.071 21.7504C449.319 22.7211 448.943 24.0679 448.943 25.7908C448.943 27.5137 449.307 28.8363 450.035 29.7584C450.787 30.6563 451.855 31.1052 453.238 31.1052Z" fill="#0D1A48"></path><path d="M124.213 64.2102C125.428 64.5434 126.369 65.151 127.035 66.033C127.701 66.915 128.035 68.0028 128.035 69.2964C128.035 71.0996 127.407 72.501 126.153 73.5006C124.918 74.5002 123.184 75 120.949 75H111.894V54.0672H120.655C122.811 54.0672 124.487 54.5474 125.683 55.5078C126.898 56.4682 127.505 57.8108 127.505 59.5356C127.505 60.6528 127.211 61.623 126.623 62.4462C126.055 63.2498 125.251 63.8378 124.213 64.2102ZM114.893 63.1518H120.185C123.105 63.1518 124.565 62.0248 124.565 59.7708C124.565 57.5952 123.105 56.5074 120.185 56.5074H114.893V63.1518ZM120.655 72.5598C122.184 72.5598 123.301 72.2854 124.007 71.7366C124.712 71.1682 125.065 70.296 125.065 69.12C125.065 67.9244 124.703 67.0424 123.977 66.474C123.272 65.886 122.164 65.592 120.655 65.592H114.893V72.5598H120.655ZM145.221 60.1824L138.312 76.2054C137.548 77.9498 136.587 79.2238 135.431 80.0274C134.294 80.8506 132.883 81.3994 131.197 81.6738L130.55 79.3806C131.942 79.067 132.991 78.6554 133.696 78.1458C134.421 77.6558 135 76.911 135.431 75.9114L135.96 74.6766L129.727 60.1824H132.873L137.518 71.6484L142.252 60.1824H145.221ZM155.621 75V54.0672H158.649V72.4716H168.821V75H155.621ZM177.9 75.2058C176.45 75.2058 175.176 74.8922 174.078 74.265C172.981 73.6378 172.128 72.746 171.52 71.5896C170.932 70.4332 170.638 69.0808 170.638 67.5324C170.638 65.984 170.932 64.6316 171.52 63.4752C172.128 62.2992 172.981 61.3976 174.078 60.7704C175.176 60.1432 176.45 59.8296 177.9 59.8296C179.331 59.8296 180.595 60.1432 181.693 60.7704C182.79 61.3976 183.633 62.2992 184.221 63.4752C184.829 64.6316 185.133 65.984 185.133 67.5324C185.133 69.0808 184.829 70.4332 184.221 71.5896C183.633 72.746 182.79 73.6378 181.693 74.265C180.595 74.8922 179.331 75.2058 177.9 75.2058ZM177.871 72.8538C179.243 72.8538 180.291 72.403 181.017 71.5014C181.742 70.5998 182.104 69.2768 182.104 67.5324C182.104 65.8272 181.732 64.514 180.987 63.5928C180.262 62.6716 179.233 62.211 177.9 62.211C176.548 62.211 175.499 62.6716 174.754 63.5928C174.01 64.514 173.637 65.8272 173.637 67.5324C173.637 69.2768 174 70.5998 174.725 71.5014C175.47 72.403 176.518 72.8538 177.871 72.8538ZM195.042 75.2058C193.552 75.2058 192.249 74.8922 191.132 74.265C190.034 73.6378 189.191 72.7558 188.603 71.619C188.015 70.4626 187.721 69.12 187.721 67.5912C187.721 66.0624 188.025 64.71 188.633 63.534C189.26 62.358 190.132 61.4466 191.249 60.7998C192.367 60.153 193.67 59.8296 195.16 59.8296C196.198 59.8296 197.198 60.006 198.158 60.3588C199.119 60.692 199.893 61.1526 200.481 61.7406L199.57 63.8868C198.178 62.7892 196.777 62.2404 195.365 62.2404C193.935 62.2404 192.817 62.7108 192.014 63.6516C191.21 64.5728 190.808 65.8762 190.808 67.5618C190.808 69.2474 191.21 70.5508 192.014 71.472C192.817 72.3736 193.935 72.8244 195.365 72.8244C196.816 72.8244 198.217 72.2756 199.57 71.178L200.481 73.3242C199.854 73.9122 199.05 74.3728 198.07 74.706C197.11 75.0392 196.1 75.2058 195.042 75.2058ZM209.655 75.2058C208.204 75.2058 206.93 74.8922 205.833 74.265C204.735 73.6378 203.882 72.746 203.275 71.5896C202.687 70.4332 202.393 69.0808 202.393 67.5324C202.393 65.984 202.687 64.6316 203.275 63.4752C203.882 62.2992 204.735 61.3976 205.833 60.7704C206.93 60.1432 208.204 59.8296 209.655 59.8296C211.085 59.8296 212.35 60.1432 213.447 60.7704C214.545 61.3976 215.388 62.2992 215.976 63.4752C216.583 64.6316 216.887 65.984 216.887 67.5324C216.887 69.0808 216.583 70.4332 215.976 71.5896C215.388 72.746 214.545 73.6378 213.447 74.265C212.35 74.8922 211.085 75.2058 209.655 75.2058ZM209.625 72.8538C210.997 72.8538 212.046 72.403 212.771 71.5014C213.496 70.5998 213.859 69.2768 213.859 67.5324C213.859 65.8272 213.486 64.514 212.742 63.5928C212.016 62.6716 210.987 62.211 209.655 62.211C208.302 62.211 207.254 62.6716 206.509 63.5928C205.764 64.514 205.392 65.8272 205.392 67.5324C205.392 69.2768 205.754 70.5998 206.479 71.5014C207.224 72.403 208.273 72.8538 209.625 72.8538ZM228.237 59.8296C231.785 59.8296 233.558 61.8092 233.558 65.7684V75H230.589V65.9448C230.589 64.6512 230.334 63.7104 229.825 63.1224C229.335 62.5344 228.541 62.2404 227.443 62.2404C226.189 62.2404 225.179 62.6324 224.415 63.4164C223.67 64.2004 223.298 65.249 223.298 66.5622V75H220.358V64.3572C220.358 62.8088 220.279 61.4172 220.123 60.1824H222.886L223.151 62.7402C223.621 61.7994 224.297 61.084 225.179 60.594C226.081 60.0844 227.1 59.8296 228.237 59.8296Z" fill="#0D1A48"></path></svg> 